<mxfile host="app.diagrams.net" agent="Mozilla/5.0 (Windows NT 10.0; Win64; x64) AppleWebKit/537.36 (KHTML, like Gecko) Chrome/125.0.0.0 Safari/537.36" version="24.7.16">
  <diagram name="Página-1" id="cHoDBYJy8gWYPqJVkw9C">
    <mxGraphModel dx="880" dy="434" grid="1" gridSize="10" guides="1" tooltips="1" connect="1" arrows="1" fold="1" page="1" pageScale="1" pageWidth="827" pageHeight="1169" math="0" shadow="0">
      <root>
        <mxCell id="0" />
        <mxCell id="1" parent="0" />
        <mxCell id="mg4VGmwGoMdq2iK8smPi-12" value="" style="edgeStyle=orthogonalEdgeStyle;rounded=0;orthogonalLoop=1;jettySize=auto;html=1;" edge="1" parent="1" source="mg4VGmwGoMdq2iK8smPi-1" target="mg4VGmwGoMdq2iK8smPi-2">
          <mxGeometry relative="1" as="geometry" />
        </mxCell>
        <mxCell id="mg4VGmwGoMdq2iK8smPi-1" value="INICIO VERIFICAR PALINDROMO" style="rounded=0;whiteSpace=wrap;html=1;" vertex="1" parent="1">
          <mxGeometry x="110" y="20" width="120" height="60" as="geometry" />
        </mxCell>
        <mxCell id="mg4VGmwGoMdq2iK8smPi-13" value="" style="edgeStyle=orthogonalEdgeStyle;rounded=0;orthogonalLoop=1;jettySize=auto;html=1;" edge="1" parent="1" source="mg4VGmwGoMdq2iK8smPi-2" target="mg4VGmwGoMdq2iK8smPi-3">
          <mxGeometry relative="1" as="geometry" />
        </mxCell>
        <mxCell id="mg4VGmwGoMdq2iK8smPi-2" value="RECEBE A PALAVRA DO USUARIO" style="rounded=0;whiteSpace=wrap;html=1;" vertex="1" parent="1">
          <mxGeometry x="110" y="140" width="120" height="60" as="geometry" />
        </mxCell>
        <mxCell id="mg4VGmwGoMdq2iK8smPi-14" value="" style="edgeStyle=orthogonalEdgeStyle;rounded=0;orthogonalLoop=1;jettySize=auto;html=1;" edge="1" parent="1" source="mg4VGmwGoMdq2iK8smPi-3" target="mg4VGmwGoMdq2iK8smPi-9">
          <mxGeometry relative="1" as="geometry" />
        </mxCell>
        <mxCell id="mg4VGmwGoMdq2iK8smPi-3" value="QUEBRA APALAVRA POR LETRA (aRRAY DE LETRAS)" style="rounded=0;whiteSpace=wrap;html=1;" vertex="1" parent="1">
          <mxGeometry x="110" y="260" width="120" height="60" as="geometry" />
        </mxCell>
        <mxCell id="mg4VGmwGoMdq2iK8smPi-16" style="edgeStyle=orthogonalEdgeStyle;rounded=0;orthogonalLoop=1;jettySize=auto;html=1;exitX=1;exitY=0.5;exitDx=0;exitDy=0;entryX=0;entryY=0.5;entryDx=0;entryDy=0;" edge="1" parent="1" source="mg4VGmwGoMdq2iK8smPi-4" target="mg4VGmwGoMdq2iK8smPi-8">
          <mxGeometry relative="1" as="geometry" />
        </mxCell>
        <mxCell id="mg4VGmwGoMdq2iK8smPi-23" value="NÃO" style="edgeLabel;html=1;align=center;verticalAlign=middle;resizable=0;points=[];" vertex="1" connectable="0" parent="mg4VGmwGoMdq2iK8smPi-16">
          <mxGeometry x="-0.0429" relative="1" as="geometry">
            <mxPoint as="offset" />
          </mxGeometry>
        </mxCell>
        <mxCell id="mg4VGmwGoMdq2iK8smPi-19" value="" style="edgeStyle=orthogonalEdgeStyle;rounded=0;orthogonalLoop=1;jettySize=auto;html=1;" edge="1" parent="1" source="mg4VGmwGoMdq2iK8smPi-4" target="mg4VGmwGoMdq2iK8smPi-10">
          <mxGeometry relative="1" as="geometry" />
        </mxCell>
        <mxCell id="mg4VGmwGoMdq2iK8smPi-24" value="SIM" style="edgeLabel;html=1;align=center;verticalAlign=middle;resizable=0;points=[];" vertex="1" connectable="0" parent="mg4VGmwGoMdq2iK8smPi-19">
          <mxGeometry x="-0.4947" relative="1" as="geometry">
            <mxPoint as="offset" />
          </mxGeometry>
        </mxCell>
        <mxCell id="mg4VGmwGoMdq2iK8smPi-4" value="LETRA&amp;nbsp; X == X-1?" style="rhombus;whiteSpace=wrap;html=1;" vertex="1" parent="1">
          <mxGeometry x="30" y="475" width="200" height="100" as="geometry" />
        </mxCell>
        <mxCell id="mg4VGmwGoMdq2iK8smPi-21" style="edgeStyle=orthogonalEdgeStyle;rounded=0;orthogonalLoop=1;jettySize=auto;html=1;exitX=1;exitY=0.5;exitDx=0;exitDy=0;entryX=0;entryY=0.75;entryDx=0;entryDy=0;" edge="1" parent="1" source="mg4VGmwGoMdq2iK8smPi-5" target="mg4VGmwGoMdq2iK8smPi-7">
          <mxGeometry relative="1" as="geometry" />
        </mxCell>
        <mxCell id="mg4VGmwGoMdq2iK8smPi-26" value="SIM" style="edgeLabel;html=1;align=center;verticalAlign=middle;resizable=0;points=[];" vertex="1" connectable="0" parent="mg4VGmwGoMdq2iK8smPi-21">
          <mxGeometry x="-0.2143" relative="1" as="geometry">
            <mxPoint as="offset" />
          </mxGeometry>
        </mxCell>
        <mxCell id="mg4VGmwGoMdq2iK8smPi-22" style="edgeStyle=orthogonalEdgeStyle;rounded=0;orthogonalLoop=1;jettySize=auto;html=1;exitX=0;exitY=0.5;exitDx=0;exitDy=0;" edge="1" parent="1" source="mg4VGmwGoMdq2iK8smPi-5">
          <mxGeometry relative="1" as="geometry">
            <mxPoint x="20" y="530" as="targetPoint" />
          </mxGeometry>
        </mxCell>
        <mxCell id="mg4VGmwGoMdq2iK8smPi-25" value="NÃO" style="edgeLabel;html=1;align=center;verticalAlign=middle;resizable=0;points=[];" vertex="1" connectable="0" parent="mg4VGmwGoMdq2iK8smPi-22">
          <mxGeometry x="0.1031" y="-1" relative="1" as="geometry">
            <mxPoint as="offset" />
          </mxGeometry>
        </mxCell>
        <mxCell id="mg4VGmwGoMdq2iK8smPi-5" value="PALAVRA ACABOU?" style="rhombus;whiteSpace=wrap;html=1;" vertex="1" parent="1">
          <mxGeometry x="95" y="750" width="140" height="80" as="geometry" />
        </mxCell>
        <mxCell id="mg4VGmwGoMdq2iK8smPi-7" value="É UM PALINDROMO" style="rounded=0;whiteSpace=wrap;html=1;" vertex="1" parent="1">
          <mxGeometry x="370" y="750" width="120" height="60" as="geometry" />
        </mxCell>
        <mxCell id="mg4VGmwGoMdq2iK8smPi-18" style="edgeStyle=orthogonalEdgeStyle;rounded=0;orthogonalLoop=1;jettySize=auto;html=1;exitX=0.5;exitY=1;exitDx=0;exitDy=0;" edge="1" parent="1" source="mg4VGmwGoMdq2iK8smPi-8">
          <mxGeometry relative="1" as="geometry">
            <mxPoint x="430" y="660" as="targetPoint" />
          </mxGeometry>
        </mxCell>
        <mxCell id="mg4VGmwGoMdq2iK8smPi-8" value="NÃO É UM PALINDROMO" style="rounded=0;whiteSpace=wrap;html=1;" vertex="1" parent="1">
          <mxGeometry x="370" y="495" width="120" height="60" as="geometry" />
        </mxCell>
        <mxCell id="mg4VGmwGoMdq2iK8smPi-15" value="" style="edgeStyle=orthogonalEdgeStyle;rounded=0;orthogonalLoop=1;jettySize=auto;html=1;" edge="1" parent="1" source="mg4VGmwGoMdq2iK8smPi-9" target="mg4VGmwGoMdq2iK8smPi-4">
          <mxGeometry relative="1" as="geometry" />
        </mxCell>
        <mxCell id="mg4VGmwGoMdq2iK8smPi-9" value="X = 0 (PRIMEIRA LETRA)" style="rounded=0;whiteSpace=wrap;html=1;" vertex="1" parent="1">
          <mxGeometry x="110" y="360" width="120" height="60" as="geometry" />
        </mxCell>
        <mxCell id="mg4VGmwGoMdq2iK8smPi-20" value="" style="edgeStyle=orthogonalEdgeStyle;rounded=0;orthogonalLoop=1;jettySize=auto;html=1;" edge="1" parent="1" source="mg4VGmwGoMdq2iK8smPi-10" target="mg4VGmwGoMdq2iK8smPi-5">
          <mxGeometry relative="1" as="geometry" />
        </mxCell>
        <mxCell id="mg4VGmwGoMdq2iK8smPi-10" value="X = X + 1;&lt;div&gt;OU X++;&lt;/div&gt;" style="rounded=0;whiteSpace=wrap;html=1;" vertex="1" parent="1">
          <mxGeometry x="110" y="630" width="120" height="60" as="geometry" />
        </mxCell>
        <mxCell id="mg4VGmwGoMdq2iK8smPi-11" value="FIM" style="rounded=0;whiteSpace=wrap;html=1;" vertex="1" parent="1">
          <mxGeometry x="580" y="610" width="120" height="60" as="geometry" />
        </mxCell>
        <mxCell id="mg4VGmwGoMdq2iK8smPi-17" style="edgeStyle=orthogonalEdgeStyle;rounded=0;orthogonalLoop=1;jettySize=auto;html=1;exitX=0.5;exitY=0;exitDx=0;exitDy=0;entryX=0;entryY=0.633;entryDx=0;entryDy=0;entryPerimeter=0;" edge="1" parent="1" source="mg4VGmwGoMdq2iK8smPi-7" target="mg4VGmwGoMdq2iK8smPi-11">
          <mxGeometry relative="1" as="geometry">
            <Array as="points">
              <mxPoint x="430" y="650" />
              <mxPoint x="580" y="650" />
            </Array>
          </mxGeometry>
        </mxCell>
      </root>
    </mxGraphModel>
  </diagram>
</mxfile>
